<mxfile host="65bd71144e">
    <diagram id="AI_UX_Analyzer_v11" name="AI UI/UX Analyzer v1.1">
        <mxGraphModel dx="1000" dy="700" grid="1" gridSize="10" guides="1" tooltips="1" connect="1" arrows="1" fold="1" page="1" pageScale="1" pageWidth="1400" pageHeight="900" math="0" shadow="0">
            <root>
                <mxCell id="0"/>
                <mxCell id="1" parent="0"/>
                
                <!-- Заголовок -->
                <mxCell id="main_title" value="🎯 AI UI/UX Analyzer v1.1 - Архитектура системы" style="text;html=1;strokeColor=none;fillColor=none;align=center;verticalAlign=middle;whiteSpace=wrap;rounded=0;fontSize=20;fontStyle=1;fontColor=#1976d2" vertex="1" parent="1">
                    <mxGeometry x="500" y="20" width="400" height="40" as="geometry"/>
                </mxCell>
                
                <!-- UI Компоненты -->
                <mxCell id="ui_title" value="📱 Пользовательский интерфейс (Gradio)" style="rounded=1;whiteSpace=wrap;html=1;fillColor=#e1f5fe;strokeColor=#01579b;fontSize=16;fontStyle=1" vertex="1" parent="1">
                    <mxGeometry x="50" y="100" width="300" height="50" as="geometry"/>
                </mxCell>
                
                <mxCell id="ui_upload" value="📤 Загрузка изображения&lt;br&gt;gr.Image(type=&quot;pil&quot;)" style="rounded=0;whiteSpace=wrap;html=1;fillColor=#f3e5f5;strokeColor=#4a148c;" vertex="1" parent="1">
                    <mxGeometry x="50" y="170" width="140" height="50" as="geometry"/>
                </mxCell>
                
                <mxCell id="ui_button" value="🔍 Кнопка анализа&lt;br&gt;gr.Button(&quot;Проанализировать&quot;)" style="rounded=0;whiteSpace=wrap;html=1;fillColor=#f3e5f5;strokeColor=#4a148c;" vertex="1" parent="1">
                    <mxGeometry x="210" y="170" width="140" height="50" as="geometry"/>
                </mxCell>
                
                <mxCell id="ui_info" value="💬 Информация о элементе&lt;br&gt;gr.Textbox (3 строки)" style="rounded=0;whiteSpace=wrap;html=1;fillColor=#c8e6c9;strokeColor=#2e7d32;fontStyle=1" vertex="1" parent="1">
                    <mxGeometry x="50" y="240" width="140" height="50" as="geometry"/>
                </mxCell>
                
                <mxCell id="ui_feedback" value="📤 Форма обратной связи&lt;br&gt;gr.Textbox + gr.Button" style="rounded=0;whiteSpace=wrap;html=1;fillColor=#c8e6c9;strokeColor=#2e7d32;fontStyle=1" vertex="1" parent="1">
                    <mxGeometry x="210" y="240" width="140" height="50" as="geometry"/>
                </mxCell>
                
                <!-- Обработка изображений -->
                <mxCell id="image_title" value="🖼️ Обработка изображений" style="rounded=1;whiteSpace=wrap;html=1;fillColor=#fff3e0;strokeColor=#e65100;fontSize=16;fontStyle=1" vertex="1" parent="1">
                    <mxGeometry x="400" y="100" width="300" height="50" as="geometry"/>
                </mxCell>
                
                                 <mxCell id="old_resize" value="❌ resize_and_pad()&lt;br&gt;(удалено v1.0)" style="rounded=0;whiteSpace=wrap;html=1;fillColor=#ffcdd2;strokeColor=#d32f2f;fontStyle=2" vertex="1" parent="1">
                     <mxGeometry x="400" y="170" width="140" height="50" as="geometry"/>
                 </mxCell>
                 
                 <mxCell id="removed_resize" value="❌ resize_and_crop()&lt;br&gt;УДАЛЕНО v1.2" style="rounded=0;whiteSpace=wrap;html=1;fillColor=#ffcdd2;strokeColor=#d32f2f;fontStyle=2" vertex="1" parent="1">
                     <mxGeometry x="560" y="170" width="140" height="50" as="geometry"/>
                 </mxCell>
                
                                 <mxCell id="original_size" value="✅ Оригинальный размер&lt;br&gt;БЕЗ масштабирования" style="rounded=0;whiteSpace=wrap;html=1;fillColor=#c8e6c9;strokeColor=#2e7d32;fontStyle=1" vertex="1" parent="1">
                     <mxGeometry x="400" y="240" width="140" height="50" as="geometry"/>
                 </mxCell>
                 
                 <mxCell id="no_processing" value="✅ Минимальная обработка&lt;br&gt;Только RGB конвертация" style="rounded=0;whiteSpace=wrap;html=1;fillColor=#c8e6c9;strokeColor=#2e7d32;fontStyle=1" vertex="1" parent="1">
                     <mxGeometry x="560" y="240" width="140" height="50" as="geometry"/>
                 </mxCell>
                
                <!-- AI Анализ -->
                <mxCell id="ai_title" value="🤖 AI Анализ (Vertex AI)" style="rounded=1;whiteSpace=wrap;html=1;fillColor=#e8f5e8;strokeColor=#2e7d32;fontSize=16;fontStyle=1" vertex="1" parent="1">
                    <mxGeometry x="750" y="100" width="300" height="50" as="geometry"/>
                </mxCell>
                
                <mxCell id="gemini" value="💎 Gemini API&lt;br&gt;MODEL_NAME = gemini-1.5-flash" style="rounded=0;whiteSpace=wrap;html=1;fillColor=#fff9c4;strokeColor=#f57f17;" vertex="1" parent="1">
                    <mxGeometry x="750" y="170" width="140" height="50" as="geometry"/>
                </mxCell>
                
                <mxCell id="prompt" value="💬 System Prompt&lt;br&gt;UI/UX expert analysis" style="rounded=0;whiteSpace=wrap;html=1;fillColor=#fff9c4;strokeColor=#f57f17;" vertex="1" parent="1">
                    <mxGeometry x="910" y="170" width="140" height="50" as="geometry"/>
                </mxCell>
                
                <mxCell id="json_response" value="📋 JSON Response&lt;br&gt;elements: [{id, box, description}]" style="rounded=0;whiteSpace=wrap;html=1;fillColor=#fff9c4;strokeColor=#f57f17;" vertex="1" parent="1">
                    <mxGeometry x="750" y="240" width="140" height="50" as="geometry"/>
                </mxCell>
                
                <mxCell id="coordinates" value="📐 Bounding Box&lt;br&gt;[x1, y1, x2, y2] coordinates" style="rounded=0;whiteSpace=wrap;html=1;fillColor=#fff9c4;strokeColor=#f57f17;" vertex="1" parent="1">
                    <mxGeometry x="910" y="240" width="140" height="50" as="geometry"/>
                </mxCell>
                
                <!-- Визуализация -->
                <mxCell id="viz_title" value="🎨 Интерактивная визуализация" style="rounded=1;whiteSpace=wrap;html=1;fillColor=#fce4ec;strokeColor=#c2185b;fontSize=16;fontStyle=1" vertex="1" parent="1">
                    <mxGeometry x="1100" y="100" width="250" height="50" as="geometry"/>
                </mxCell>
                
                <mxCell id="old_borders" value="❌ Размытые рамки&lt;br&gt;(старая версия)" style="rounded=0;whiteSpace=wrap;html=1;fillColor=#ffcdd2;strokeColor=#d32f2f;fontStyle=2" vertex="1" parent="1">
                    <mxGeometry x="1100" y="170" width="120" height="50" as="geometry"/>
                </mxCell>
                
                <mxCell id="new_borders" value="✅ Четкие рамки&lt;br&gt;3px зеленые" style="rounded=0;whiteSpace=wrap;html=1;fillColor=#c8e6c9;strokeColor=#2e7d32;fontStyle=1" vertex="1" parent="1">
                    <mxGeometry x="1230" y="170" width="120" height="50" as="geometry"/>
                </mxCell>
                
                <mxCell id="interactive" value="🖱️ Интерактивные зоны&lt;br&gt;onClick + onHover" style="rounded=0;whiteSpace=wrap;html=1;fillColor=#c8e6c9;strokeColor=#2e7d32;fontStyle=1" vertex="1" parent="1">
                    <mxGeometry x="1100" y="240" width="120" height="50" as="geometry"/>
                </mxCell>
                
                <mxCell id="working_tooltip" value="✅ Рабочий tooltip&lt;br&gt;+ JS интеграция" style="rounded=0;whiteSpace=wrap;html=1;fillColor=#c8e6c9;strokeColor=#2e7d32;fontStyle=1" vertex="1" parent="1">
                    <mxGeometry x="1230" y="240" width="120" height="50" as="geometry"/>
                </mxCell>
                
                <!-- Исправления -->
                <mxCell id="fixes_title" value="✅ Критические исправления v1.1" style="text;html=1;strokeColor=none;fillColor=none;align=center;verticalAlign=middle;whiteSpace=wrap;rounded=0;fontSize=18;fontStyle=1;fontColor=#2e7d32" vertex="1" parent="1">
                    <mxGeometry x="550" y="340" width="300" height="40" as="geometry"/>
                </mxCell>
                
                <mxCell id="fix_tooltip" value="1️⃣ Tooltip + JavaScript&lt;br&gt;Теперь работает с Gradio" style="rounded=0;whiteSpace=wrap;html=1;fillColor=#c8e6c9;strokeColor=#2e7d32;fontSize=14;fontStyle=1" vertex="1" parent="1">
                    <mxGeometry x="50" y="400" width="300" height="50" as="geometry"/>
                </mxCell>
                
                                 <mxCell id="fix_scaling" value="2️⃣ ❌ УДАЛЕНО v1.2&lt;br&gt;resize_and_crop убрано по запросу" style="rounded=0;whiteSpace=wrap;html=1;fillColor=#ffcdd2;strokeColor=#d32f2f;fontSize=14;fontStyle=2" vertex="1" parent="1">
                     <mxGeometry x="375" y="400" width="300" height="50" as="geometry"/>
                 </mxCell>
                
                <mxCell id="fix_borders" value="3️⃣ Четкие рамки&lt;br&gt;3px границы для ML-обучения" style="rounded=0;whiteSpace=wrap;html=1;fillColor=#c8e6c9;strokeColor=#2e7d32;fontSize=14;fontStyle=1" vertex="1" parent="1">
                    <mxGeometry x="700" y="400" width="300" height="50" as="geometry"/>
                </mxCell>
                
                <mxCell id="fix_feedback" value="4️⃣ Форма обратной связи&lt;br&gt;Сохранение в feedback.txt" style="rounded=0;whiteSpace=wrap;html=1;fillColor=#c8e6c9;strokeColor=#2e7d32;fontSize=14;fontStyle=1" vertex="1" parent="1">
                    <mxGeometry x="1025" y="400" width="300" height="50" as="geometry"/>
                </mxCell>
                
                <!-- Поток данных -->
                <mxCell id="dataflow_title" value="🔄 Поток данных приложения" style="text;html=1;strokeColor=none;fillColor=none;align=center;verticalAlign=middle;whiteSpace=wrap;rounded=0;fontSize=18;fontStyle=1;fontColor=#1976d2" vertex="1" parent="1">
                    <mxGeometry x="550" y="500" width="300" height="40" as="geometry"/>
                </mxCell>
                
                <mxCell id="step1" value="📤&lt;br&gt;Upload" style="rounded=1;whiteSpace=wrap;html=1;fillColor=#e3f2fd;strokeColor=#1976d2;fontSize=12;fontStyle=1" vertex="1" parent="1">
                    <mxGeometry x="100" y="560" width="80" height="60" as="geometry"/>
                </mxCell>
                
                                 <mxCell id="step2" value="📏&lt;br&gt;Original Size" style="rounded=1;whiteSpace=wrap;html=1;fillColor=#e3f2fd;strokeColor=#1976d2;fontSize=12;fontStyle=1" vertex="1" parent="1">
                     <mxGeometry x="220" y="560" width="80" height="60" as="geometry"/>
                 </mxCell>
                
                <mxCell id="step3" value="🤖&lt;br&gt;AI Analysis" style="rounded=1;whiteSpace=wrap;html=1;fillColor=#e3f2fd;strokeColor=#1976d2;fontSize=12;fontStyle=1" vertex="1" parent="1">
                    <mxGeometry x="340" y="560" width="80" height="60" as="geometry"/>
                </mxCell>
                
                <mxCell id="step4" value="📋&lt;br&gt;JSON Parse" style="rounded=1;whiteSpace=wrap;html=1;fillColor=#e3f2fd;strokeColor=#1976d2;fontSize=12;fontStyle=1" vertex="1" parent="1">
                    <mxGeometry x="460" y="560" width="80" height="60" as="geometry"/>
                </mxCell>
                
                <mxCell id="step5" value="🎨&lt;br&gt;HTML Gen" style="rounded=1;whiteSpace=wrap;html=1;fillColor=#e3f2fd;strokeColor=#1976d2;fontSize=12;fontStyle=1" vertex="1" parent="1">
                    <mxGeometry x="580" y="560" width="80" height="60" as="geometry"/>
                </mxCell>
                
                <mxCell id="step6" value="🖥️&lt;br&gt;Display" style="rounded=1;whiteSpace=wrap;html=1;fillColor=#e3f2fd;strokeColor=#1976d2;fontSize=12;fontStyle=1" vertex="1" parent="1">
                    <mxGeometry x="700" y="560" width="80" height="60" as="geometry"/>
                </mxCell>
                
                <mxCell id="step7" value="👆&lt;br&gt;Click" style="rounded=1;whiteSpace=wrap;html=1;fillColor=#e3f2fd;strokeColor=#1976d2;fontSize=12;fontStyle=1" vertex="1" parent="1">
                    <mxGeometry x="820" y="560" width="80" height="60" as="geometry"/>
                </mxCell>
                
                <mxCell id="step8" value="💬&lt;br&gt;Feedback" style="rounded=1;whiteSpace=wrap;html=1;fillColor=#e3f2fd;strokeColor=#1976d2;fontSize=12;fontStyle=1" vertex="1" parent="1">
                    <mxGeometry x="940" y="560" width="80" height="60" as="geometry"/>
                </mxCell>
                
                <!-- Стрелки -->
                <mxCell id="arrow1" value="" style="endArrow=classic;html=1;rounded=0;strokeColor=#1976d2;strokeWidth=3;" edge="1" parent="1">
                    <mxGeometry width="50" height="50" relative="1" as="geometry">
                        <mxPoint x="180" y="590" as="sourcePoint"/>
                        <mxPoint x="220" y="590" as="targetPoint"/>
                    </mxGeometry>
                </mxCell>
                
                <mxCell id="arrow2" value="" style="endArrow=classic;html=1;rounded=0;strokeColor=#1976d2;strokeWidth=3;" edge="1" parent="1">
                    <mxGeometry width="50" height="50" relative="1" as="geometry">
                        <mxPoint x="300" y="590" as="sourcePoint"/>
                        <mxPoint x="340" y="590" as="targetPoint"/>
                    </mxGeometry>
                </mxCell>
                
                <mxCell id="arrow3" value="" style="endArrow=classic;html=1;rounded=0;strokeColor=#1976d2;strokeWidth=3;" edge="1" parent="1">
                    <mxGeometry width="50" height="50" relative="1" as="geometry">
                        <mxPoint x="420" y="590" as="sourcePoint"/>
                        <mxPoint x="460" y="590" as="targetPoint"/>
                    </mxGeometry>
                </mxCell>
                
                <mxCell id="arrow4" value="" style="endArrow=classic;html=1;rounded=0;strokeColor=#1976d2;strokeWidth=3;" edge="1" parent="1">
                    <mxGeometry width="50" height="50" relative="1" as="geometry">
                        <mxPoint x="540" y="590" as="sourcePoint"/>
                        <mxPoint x="580" y="590" as="targetPoint"/>
                    </mxGeometry>
                </mxCell>
                
                <mxCell id="arrow5" value="" style="endArrow=classic;html=1;rounded=0;strokeColor=#1976d2;strokeWidth=3;" edge="1" parent="1">
                    <mxGeometry width="50" height="50" relative="1" as="geometry">
                        <mxPoint x="660" y="590" as="sourcePoint"/>
                        <mxPoint x="700" y="590" as="targetPoint"/>
                    </mxGeometry>
                </mxCell>
                
                <mxCell id="arrow6" value="" style="endArrow=classic;html=1;rounded=0;strokeColor=#1976d2;strokeWidth=3;" edge="1" parent="1">
                    <mxGeometry width="50" height="50" relative="1" as="geometry">
                        <mxPoint x="780" y="590" as="sourcePoint"/>
                        <mxPoint x="820" y="590" as="targetPoint"/>
                    </mxGeometry>
                </mxCell>
                
                <mxCell id="arrow7" value="" style="endArrow=classic;html=1;rounded=0;strokeColor=#1976d2;strokeWidth=3;" edge="1" parent="1">
                    <mxGeometry width="50" height="50" relative="1" as="geometry">
                        <mxPoint x="900" y="590" as="sourcePoint"/>
                        <mxPoint x="940" y="590" as="targetPoint"/>
                    </mxGeometry>
                </mxCell>
                
                <!-- Техническая информация -->
                <mxCell id="tech_title" value="🔧 Технический стек" style="text;html=1;strokeColor=none;fillColor=none;align=center;verticalAlign=middle;whiteSpace=wrap;rounded=0;fontSize=18;fontStyle=1;fontColor=#e65100" vertex="1" parent="1">
                    <mxGeometry x="550" y="680" width="200" height="40" as="geometry"/>
                </mxCell>
                
                <mxCell id="tech_python" value="🐍 Python 3.x + Gradio" style="rounded=0;whiteSpace=wrap;html=1;fillColor=#fff3e0;strokeColor=#e65100;fontSize=12;" vertex="1" parent="1">
                    <mxGeometry x="50" y="730" width="150" height="40" as="geometry"/>
                </mxCell>
                
                <mxCell id="tech_vertex" value="☁️ Google Vertex AI" style="rounded=0;whiteSpace=wrap;html=1;fillColor=#fff3e0;strokeColor=#e65100;fontSize=12;" vertex="1" parent="1">
                    <mxGeometry x="220" y="730" width="150" height="40" as="geometry"/>
                </mxCell>
                
                <mxCell id="tech_pil" value="🖼️ PIL (Pillow)" style="rounded=0;whiteSpace=wrap;html=1;fillColor=#fff3e0;strokeColor=#e65100;fontSize=12;" vertex="1" parent="1">
                    <mxGeometry x="390" y="730" width="150" height="40" as="geometry"/>
                </mxCell>
                
                <mxCell id="tech_js" value="⚡ JavaScript + HTML5" style="rounded=0;whiteSpace=wrap;html=1;fillColor=#fff3e0;strokeColor=#e65100;fontSize=12;" vertex="1" parent="1">
                    <mxGeometry x="560" y="730" width="150" height="40" as="geometry"/>
                </mxCell>
                
                <mxCell id="tech_drawio" value="📊 Draw.io диаграммы" style="rounded=0;whiteSpace=wrap;html=1;fillColor=#fff3e0;strokeColor=#e65100;fontSize=12;" vertex="1" parent="1">
                    <mxGeometry x="730" y="730" width="150" height="40" as="geometry"/>
                </mxCell>
                
                <mxCell id="tech_secret" value="🔐 Secret Manager" style="rounded=0;whiteSpace=wrap;html=1;fillColor=#fff3e0;strokeColor=#e65100;fontSize=12;" vertex="1" parent="1">
                    <mxGeometry x="900" y="730" width="150" height="40" as="geometry"/>
                </mxCell>
                
                <!-- Легенда -->
                <mxCell id="legend_title" value="📋 Легенда" style="text;html=1;strokeColor=none;fillColor=none;align=left;verticalAlign=middle;whiteSpace=wrap;rounded=0;fontSize=16;fontStyle=1;fontColor=#424242" vertex="1" parent="1">
                    <mxGeometry x="50" y="800" width="100" height="30" as="geometry"/>
                </mxCell>
                
                <mxCell id="legend_fixed" value="✅ Исправлено в v1.1" style="rounded=0;whiteSpace=wrap;html=1;fillColor=#c8e6c9;strokeColor=#2e7d32;fontSize=12;" vertex="1" parent="1">
                    <mxGeometry x="50" y="840" width="150" height="30" as="geometry"/>
                </mxCell>
                
                <mxCell id="legend_existing" value="🔄 Существующий функционал" style="rounded=0;whiteSpace=wrap;html=1;fillColor=#fff9c4;strokeColor=#f57f17;fontSize=12;" vertex="1" parent="1">
                    <mxGeometry x="220" y="840" width="180" height="30" as="geometry"/>
                </mxCell>
                
                <mxCell id="legend_deprecated" value="❌ Устаревший код" style="rounded=0;whiteSpace=wrap;html=1;fillColor=#ffcdd2;strokeColor=#d32f2f;fontSize=12;" vertex="1" parent="1">
                    <mxGeometry x="420" y="840" width="150" height="30" as="geometry"/>
                </mxCell>
                
                <mxCell id="legend_flow" value="🔄 Поток данных" style="rounded=0;whiteSpace=wrap;html=1;fillColor=#e3f2fd;strokeColor=#1976d2;fontSize=12;" vertex="1" parent="1">
                    <mxGeometry x="590" y="840" width="120" height="30" as="geometry"/>
                </mxCell>
                
                <mxCell id="legend_tech" value="🔧 Технологии" style="rounded=0;whiteSpace=wrap;html=1;fillColor=#fff3e0;strokeColor=#e65100;fontSize=12;" vertex="1" parent="1">
                    <mxGeometry x="730" y="840" width="120" height="30" as="geometry"/>
                </mxCell>
                
                                 <!-- Статус версии -->
                 <mxCell id="version_status" value="🔄 v1.2 - ФУНКЦИЯ RESIZE_AND_CROP() УДАЛЕНА ПО ЗАПРОСУ ПОЛЬЗОВАТЕЛЯ ✅" style="text;html=1;strokeColor=#2e7d32;fillColor=#c8e6c9;align=center;verticalAlign=middle;whiteSpace=wrap;rounded=1;fontSize=16;fontStyle=1;fontColor=#2e7d32" vertex="1" parent="1">
                     <mxGeometry x="400" y="790" width="600" height="40" as="geometry"/>
                 </mxCell>
                
            </root>
        </mxGraphModel>
    </diagram>
</mxfile>